<?xml version="1.0" encoding="utf-8"?>
<!-- Generator: Adobe Illustrator 27.9.0, SVG Export Plug-In . SVG Version: 6.00 Build 0)  -->
<svg version="1.1" id="Layer_1" xmlns="http://www.w3.org/2000/svg" xmlns:xlink="http://www.w3.org/1999/xlink" x="0px" y="0px"
	 viewBox="0 0 22.1 22" style="enable-background:new 0 0 22.1 22;" xml:space="preserve">
<style type="text/css">
	.st0{fill:#B1B1B1;}
	.st1{stroke:#000000;stroke-width:0.5;stroke-miterlimit:10;}
</style>
<path class="st0" d="M1.4,0h19.3c0.8,0,1.4,0.6,1.4,1.4v19.3c0,0.8-0.6,1.4-1.4,1.4H1.4c-0.8,0-1.4-0.6-1.4-1.4V1.4
	C0.1,0.6,0.7,0,1.4,0z"/>
<path class="st1" d="M11,5c-0.3,0-0.5,0.2-0.5,0.5v4.6H5.9c-0.3,0-0.5,0.2-0.5,0.5c0,0.3,0.2,0.5,0.5,0.5h4.6v4.6
	c0,0.3,0.2,0.5,0.5,0.5s0.5-0.2,0.5-0.5v-4.6h4.6c0.3,0,0.5-0.2,0.5-0.5c0-0.3-0.2-0.5-0.5-0.5h-4.6V5.5C11.5,5.3,11.3,5,11,5z"/>
</svg>
