<?xml version="1.0" encoding="UTF-8"?>
<svg id="Layer_1" data-name="Layer 1" xmlns="http://www.w3.org/2000/svg" width="22.07" height="22.02" viewBox="0 0 22.07 22.02">
  <defs>
    <style>
      .cls-1 {
        fill: #b1b1b1;
      }

      .cls-1, .cls-2 {
        stroke-width: 0px;
      }

      .cls-2 {
        fill: #fff;
      }
    </style>
  </defs>
  <rect class="cls-1" x=".07" y=".02" width="22" height="22" rx="1.37" ry="1.37"/>
  <path class="cls-2" d="m11,0c-.55,0-1,.45-1,1v9H1c-.55,0-1,.45-1,1s.45,1,1,1h9v9c0,.55.45,1,1,1s1-.45,1-1v-9h9c.55,0,1-.45,1-1s-.45-1-1-1h-9V1c0-.55-.45-1-1-1Z"/>
</svg>