<?xml version="1.0" encoding="utf-8"?>
<!-- Generator: Adobe Illustrator 27.9.0, SVG Export Plug-In . SVG Version: 6.00 Build 0)  -->
<svg version="1.1" id="Layer_1" xmlns="http://www.w3.org/2000/svg" xmlns:xlink="http://www.w3.org/1999/xlink" x="0px" y="0px"
	 viewBox="0 0 23 23" style="enable-background:new 0 0 23 23;" xml:space="preserve">
<style type="text/css">
	.st0{fill-rule:evenodd;clip-rule:evenodd;fill:#B1B1B1;stroke:#B1B1B1;stroke-width:0.5;}
</style>
<path class="st0" d="M17.4,15.9c1.2-1.6,2-3.6,2-5.8c0-5.2-4.3-9.5-9.5-9.5c-5.2,0-9.5,4.3-9.5,9.5c0,5.2,4.3,9.5,9.5,9.5
	c2.3,0,4.5-0.8,6.1-2.2l4.8,4.8c0.4,0.4,1,0.4,1.4,0c0.4-0.4,0.4-1,0-1.4L17.4,15.9z M9.9,17.7c-4.2,0-7.6-3.4-7.6-7.6
	c0-4.2,3.4-7.6,7.6-7.6c4.2,0,7.6,3.4,7.6,7.6C17.5,14.3,14.1,17.7,9.9,17.7z"/>
</svg>
