<?xml version="1.0" encoding="utf-8"?>
<!-- Generator: Adobe Illustrator 27.9.0, SVG Export Plug-In . SVG Version: 6.00 Build 0)  -->
<svg version="1.1" id="Layer_1" xmlns="http://www.w3.org/2000/svg" xmlns:xlink="http://www.w3.org/1999/xlink" x="0px" y="0px"
	 viewBox="0 0 22 22" style="enable-background:new 0 0 22 22;" xml:space="preserve">
<style type="text/css">
	.st0{fill:#B1B1B1;}
	.st1{fill-rule:evenodd;clip-rule:evenodd;fill:#B1B1B1;}
</style>
<path class="st0" d="M2,0.8c-0.6,0-1,0.4-1,1v18.4c0,0.6,0.4,1,1,1s1-0.4,1-1V1.8C3,1.2,2.5,0.8,2,0.8z"/>
<path class="st0" d="M7,1.8c0-0.6,0.4-1,1-1s1,0.4,1,1v18.4c0,0.6-0.4,1-1,1s-1-0.4-1-1V1.8z"/>
<path class="st1" d="M13,2c0-0.9,0.9-1.4,1.7-0.9l5.8,3.5c0.2,0.1,0.3,0.2,0.4,0.4C21,5.2,21,5.4,21,5.5v14.6c0,0.6-0.5,1.1-1.1,1.1
	h-5.8c-0.6,0-1.1-0.5-1.1-1.1V2z M15,3.6v15.6h4V6L15,3.6z"/>
</svg>
